<svg width="24" height="25" viewBox="0 0 24 25" fill="none" xmlns="http://www.w3.org/2000/svg">
<mask id="mask0_585_1680" style="mask-type:alpha" maskUnits="userSpaceOnUse" x="0" y="0" width="24" height="25">
<rect y="0.377441" width="24" height="24" fill="#D9D9D9"/>
</mask>
<g mask="url(#mask0_585_1680)">
<path d="M12 22.3774C10.6333 22.3774 9.34167 22.1149 8.125 21.5899C6.90833 21.0649 5.84583 20.3483 4.9375 19.4399C4.02917 18.5316 3.3125 17.4691 2.7875 16.2524C2.2625 15.0358 2 13.7441 2 12.3774C2 10.9941 2.2625 9.69828 2.7875 8.48994C3.3125 7.28161 4.02917 6.22327 4.9375 5.31494C5.84583 4.40661 6.90833 3.68994 8.125 3.16494C9.34167 2.63994 10.6333 2.37744 12 2.37744C13.3833 2.37744 14.6792 2.63994 15.8875 3.16494C17.0958 3.68994 18.1542 4.40661 19.0625 5.31494C19.9708 6.22327 20.6875 7.28161 21.2125 8.48994C21.7375 9.69828 22 10.9941 22 12.3774C22 13.7441 21.7375 15.0358 21.2125 16.2524C20.6875 17.4691 19.9708 18.5316 19.0625 19.4399C18.1542 20.3483 17.0958 21.0649 15.8875 21.5899C14.6792 22.1149 13.3833 22.3774 12 22.3774ZM12 20.3274C12.4333 19.7274 12.8083 19.1024 13.125 18.4524C13.4417 17.8024 13.7 17.1108 13.9 16.3774H10.1C10.3 17.1108 10.5583 17.8024 10.875 18.4524C11.1917 19.1024 11.5667 19.7274 12 20.3274ZM9.4 19.9274C9.1 19.3774 8.8375 18.8066 8.6125 18.2149C8.3875 17.6233 8.2 17.0108 8.05 16.3774H5.1C5.58333 17.2108 6.1875 17.9358 6.9125 18.5524C7.6375 19.1691 8.46667 19.6274 9.4 19.9274ZM14.6 19.9274C15.5333 19.6274 16.3625 19.1691 17.0875 18.5524C17.8125 17.9358 18.4167 17.2108 18.9 16.3774H15.95C15.8 17.0108 15.6125 17.6233 15.3875 18.2149C15.1625 18.8066 14.9 19.3774 14.6 19.9274ZM4.25 14.3774H7.65C7.6 14.0441 7.5625 13.7149 7.5375 13.3899C7.5125 13.0649 7.5 12.7274 7.5 12.3774C7.5 12.0274 7.5125 11.6899 7.5375 11.3649C7.5625 11.0399 7.6 10.7108 7.65 10.3774H4.25C4.16667 10.7108 4.10417 11.0399 4.0625 11.3649C4.02083 11.6899 4 12.0274 4 12.3774C4 12.7274 4.02083 13.0649 4.0625 13.3899C4.10417 13.7149 4.16667 14.0441 4.25 14.3774ZM9.65 14.3774H14.35C14.4 14.0441 14.4375 13.7149 14.4625 13.3899C14.4875 13.0649 14.5 12.7274 14.5 12.3774C14.5 12.0274 14.4875 11.6899 14.4625 11.3649C14.4375 11.0399 14.4 10.7108 14.35 10.3774H9.65C9.6 10.7108 9.5625 11.0399 9.5375 11.3649C9.5125 11.6899 9.5 12.0274 9.5 12.3774C9.5 12.7274 9.5125 13.0649 9.5375 13.3899C9.5625 13.7149 9.6 14.0441 9.65 14.3774ZM16.35 14.3774H19.75C19.8333 14.0441 19.8958 13.7149 19.9375 13.3899C19.9792 13.0649 20 12.7274 20 12.3774C20 12.0274 19.9792 11.6899 19.9375 11.3649C19.8958 11.0399 19.8333 10.7108 19.75 10.3774H16.35C16.4 10.7108 16.4375 11.0399 16.4625 11.3649C16.4875 11.6899 16.5 12.0274 16.5 12.3774C16.5 12.7274 16.4875 13.0649 16.4625 13.3899C16.4375 13.7149 16.4 14.0441 16.35 14.3774ZM15.95 8.37744H18.9C18.4167 7.54411 17.8125 6.81911 17.0875 6.20244C16.3625 5.58577 15.5333 5.12744 14.6 4.82744C14.9 5.37744 15.1625 5.94827 15.3875 6.53994C15.6125 7.13161 15.8 7.74411 15.95 8.37744ZM10.1 8.37744H13.9C13.7 7.64411 13.4417 6.95244 13.125 6.30244C12.8083 5.65244 12.4333 5.02744 12 4.42744C11.5667 5.02744 11.1917 5.65244 10.875 6.30244C10.5583 6.95244 10.3 7.64411 10.1 8.37744ZM5.1 8.37744H8.05C8.2 7.74411 8.3875 7.13161 8.6125 6.53994C8.8375 5.94827 9.1 5.37744 9.4 4.82744C8.46667 5.12744 7.6375 5.58577 6.9125 6.20244C6.1875 6.81911 5.58333 7.54411 5.1 8.37744Z" fill="white"/>
</g>
</svg>
