<svg width="22" height="22" viewBox="0 0 22 22" fill="none" xmlns="http://www.w3.org/2000/svg">
<path d="M6.50832 10.4042C6.72221 9.97639 6.94373 9.56389 7.1729 9.16667C7.40207 8.76945 7.65415 8.37222 7.92915 7.975L6.64582 7.72292L4.72082 9.64792L6.50832 10.4042ZM17.5541 4.10209C16.4847 4.13264 15.3427 4.44584 14.1281 5.04167C12.9135 5.6375 11.8097 6.43195 10.8166 7.425C10.175 8.06667 9.60207 8.75417 9.0979 9.4875C8.59373 10.2208 8.21943 10.9083 7.97498 11.55L10.5875 14.1396C11.2291 13.8951 11.9166 13.5208 12.65 13.0167C13.3833 12.5125 14.0708 11.9396 14.7125 11.2979C15.7055 10.3049 16.5 9.20486 17.0958 7.99792C17.6916 6.79097 18.0048 5.65278 18.0354 4.58334C18.0354 4.52222 18.0239 4.46111 18.001 4.4C17.9781 4.33889 17.9437 4.28542 17.8979 4.23959C17.8521 4.19375 17.7986 4.15938 17.7375 4.13646C17.6764 4.11354 17.6153 4.10209 17.5541 4.10209ZM12.5125 9.60209C12.1611 9.2507 11.9854 8.8191 11.9854 8.30729C11.9854 7.79549 12.1611 7.36389 12.5125 7.0125C12.8639 6.66111 13.2993 6.48542 13.8187 6.48542C14.3382 6.48542 14.7736 6.66111 15.125 7.0125C15.4764 7.36389 15.6521 7.79549 15.6521 8.30729C15.6521 8.8191 15.4764 9.2507 15.125 9.60209C14.7736 9.95347 14.3382 10.1292 13.8187 10.1292C13.2993 10.1292 12.8639 9.95347 12.5125 9.60209ZM11.7333 15.6063L12.4896 17.4167L14.4146 15.4917L14.1625 14.2083C13.7653 14.4833 13.368 14.7316 12.9708 14.9531C12.5736 15.1747 12.1611 15.3924 11.7333 15.6063ZM19.7771 3.36875C19.8993 5.04931 19.6243 6.68785 18.9521 8.28438C18.2798 9.88091 17.218 11.4049 15.7666 12.8563L16.225 15.125C16.2861 15.4306 16.2708 15.7285 16.1791 16.0188C16.0875 16.309 15.9347 16.5611 15.7208 16.775L12.8333 19.6625C12.6041 19.8917 12.3292 19.9795 12.0083 19.926C11.6875 19.8726 11.466 19.6931 11.3437 19.3875L9.94582 16.1104L6.02707 12.1917L2.74998 10.7938C2.44443 10.6715 2.26109 10.45 2.19998 10.1292C2.13887 9.80834 2.2229 9.53334 2.45207 9.30417L5.33957 6.41667C5.55346 6.20278 5.80936 6.05 6.10728 5.95834C6.40519 5.86667 6.70693 5.85139 7.01248 5.9125L9.28123 6.37084C10.7326 4.91945 12.2566 3.85764 13.8531 3.18542C15.4496 2.5132 17.0882 2.2382 18.7687 2.36042C18.891 2.3757 19.0132 2.41007 19.1354 2.46354C19.2576 2.51702 19.3646 2.58959 19.4562 2.68125C19.5479 2.77292 19.6205 2.87986 19.6739 3.00209C19.7274 3.12431 19.7618 3.24653 19.7771 3.36875ZM3.5979 14.6438C4.13262 14.109 4.78575 13.8378 5.55728 13.8302C6.3288 13.8226 6.98193 14.0861 7.51665 14.6208C8.05137 15.1556 8.31491 15.8087 8.30727 16.5802C8.29964 17.3517 8.02846 18.0049 7.49373 18.5396C6.7604 19.2729 5.89339 19.7083 4.89269 19.8458C3.892 19.9833 2.88748 20.1208 1.87915 20.2583C2.01665 19.25 2.15415 18.2455 2.29165 17.2448C2.42915 16.2441 2.86457 15.3771 3.5979 14.6438ZM4.90415 15.9271C4.64443 16.1868 4.46491 16.5 4.36561 16.8667C4.2663 17.2333 4.18609 17.6076 4.12498 17.9896C4.50693 17.9285 4.88123 17.8521 5.2479 17.7604C5.61457 17.6688 5.92776 17.4931 6.18748 17.2333C6.37082 17.05 6.47012 16.8285 6.4854 16.5688C6.50068 16.309 6.41665 16.0875 6.23332 15.9042C6.04998 15.7208 5.82846 15.633 5.56873 15.6406C5.30901 15.6483 5.08748 15.7438 4.90415 15.9271Z" fill="white"/>
</svg>
