<svg width="24" height="25" viewBox="0 0 24 25" fill="none" xmlns="http://www.w3.org/2000/svg">
<mask id="mask0_585_1669" style="mask-type:alpha" maskUnits="userSpaceOnUse" x="0" y="0" width="24" height="25">
<rect y="0.377441" width="24" height="24" fill="#D9D9D9"/>
</mask>
<g mask="url(#mask0_585_1669)">
<path d="M11 19.3774V16.2774C10.1833 16.0941 9.45417 15.7483 8.8125 15.2399C8.17083 14.7316 7.7 14.0941 7.4 13.3274C6.15 13.1774 5.10417 12.6316 4.2625 11.6899C3.42083 10.7483 3 9.64411 3 8.37744V7.37744C3 6.82744 3.19583 6.35661 3.5875 5.96494C3.97917 5.57327 4.45 5.37744 5 5.37744H7C7 4.82744 7.19583 4.35661 7.5875 3.96494C7.97917 3.57327 8.45 3.37744 9 3.37744H15C15.55 3.37744 16.0208 3.57327 16.4125 3.96494C16.8042 4.35661 17 4.82744 17 5.37744H19C19.55 5.37744 20.0208 5.57327 20.4125 5.96494C20.8042 6.35661 21 6.82744 21 7.37744V8.37744C21 9.64411 20.5792 10.7483 19.7375 11.6899C18.8958 12.6316 17.85 13.1774 16.6 13.3274C16.3 14.0941 15.8292 14.7316 15.1875 15.2399C14.5458 15.7483 13.8167 16.0941 13 16.2774V19.3774H16C16.2833 19.3774 16.5208 19.4733 16.7125 19.6649C16.9042 19.8566 17 20.0941 17 20.3774C17 20.6608 16.9042 20.8983 16.7125 21.0899C16.5208 21.2816 16.2833 21.3774 16 21.3774H8C7.71667 21.3774 7.47917 21.2816 7.2875 21.0899C7.09583 20.8983 7 20.6608 7 20.3774C7 20.0941 7.09583 19.8566 7.2875 19.6649C7.47917 19.4733 7.71667 19.3774 8 19.3774H11ZM7 11.1774V7.37744H5V8.37744C5 9.01077 5.18333 9.58161 5.55 10.0899C5.91667 10.5983 6.4 10.9608 7 11.1774ZM12 14.3774C12.8333 14.3774 13.5417 14.0858 14.125 13.5024C14.7083 12.9191 15 12.2108 15 11.3774V5.37744H9V11.3774C9 12.2108 9.29167 12.9191 9.875 13.5024C10.4583 14.0858 11.1667 14.3774 12 14.3774ZM17 11.1774C17.6 10.9608 18.0833 10.5983 18.45 10.0899C18.8167 9.58161 19 9.01077 19 8.37744V7.37744H17V11.1774Z" fill="white"/>
</g>
</svg>
